<?xml version="1.0" encoding="UTF-8"?>
<svg version="1.1" xmlns="http://www.w3.org/2000/svg" width="1024" height="1024">
<path d="M0 0 C337.92 0 675.84 0 1024 0 C1024 337.92 1024 675.84 1024 1024 C686.08 1024 348.16 1024 0 1024 C0 686.08 0 348.16 0 0 Z " fill="#000000" transform="translate(0,0)"/>
<path d="M0 0 C18.15 0 36.3 0 55 0 C55.9075 4.434375 56.815 8.86875 57.75 13.4375 C59.66618452 22.73507572 61.64173292 32.0013777 63.8671875 41.23046875 C65.33472511 47.34797252 66.71120964 53.48656816 68.09646606 59.62310791 C68.40100169 60.97211041 68.70589752 62.32103167 69.01119995 63.66986084 C70.83298604 71.71940161 72.60436564 79.77778236 74.32348633 87.84985352 C75.05276672 91.24570517 75.81334324 94.63337671 76.58398438 98.02001953 C77.87622495 103.70455945 79.11487515 109.35993906 80 115.125 C80.70388834 119.63852963 81.72359334 124.02086135 82.875 128.4375 C84.57860932 134.99817385 85.97642604 141.59268155 87.25 148.25 C87.42515137 149.15548584 87.60030273 150.06097168 87.78076172 150.99389648 C87.9407666 151.84669189 88.10077148 152.6994873 88.265625 153.578125 C88.40774414 154.33512695 88.54986328 155.09212891 88.69628906 155.87207031 C89 158 89 158 89 162 C89.66 162 90.32 162 91 162 C91.103125 160.88625 91.20625 159.7725 91.3125 158.625 C91.82795753 154.47955983 92.93834432 150.69768045 94.19140625 146.72265625 C95.0252112 143.9151101 95.68234801 141.10992057 96.3125 138.25 C97.87302401 131.29334823 99.7532634 124.43633014 101.66723633 117.56933594 C103.15124733 112.21684193 104.55085273 106.84830336 105.88671875 101.45703125 C107.91894927 93.25652029 110.06814364 85.08899351 112.23309326 76.92266846 C116.28095536 61.64532795 120.22111569 46.3463323 124 31 C124.36935373 29.50640205 124.73912218 28.01290657 125.109375 26.51953125 C125.26116211 25.90698486 125.41294922 25.29443848 125.56933594 24.66333008 C127.62887903 16.41339404 129.80778667 8.22079998 132 0 C147.51 0 163.02 0 179 0 C180.5778125 6.4040625 180.5778125 6.4040625 182.1875 12.9375 C184.55861877 22.49500067 187.04643077 31.97941958 189.95703125 41.38671875 C190.94703417 44.81650415 191.73230561 48.23475804 192.48413086 51.72143555 C193.31107186 55.37398659 194.34569911 58.96276136 195.375 62.5625 C197.18369727 68.97872057 198.88561483 75.40650213 200.4777832 81.88012695 C201.98827587 88.00614006 203.59659092 94.1047179 205.21264648 100.20361328 C206.36610245 104.5648816 207.4889288 108.93069581 208.5625 113.3125 C209.61393752 117.57171301 210.78203002 121.78536427 212 126 C214.8859324 136.00749183 217.27681375 146.05529345 219.3515625 156.26171875 C219.72267897 158.89772483 219.72267897 158.89772483 221 160 C222.44996018 153.96663385 223.89824227 147.93287208 225.34375 141.8984375 C226.35657193 137.6724849 227.37632264 133.44837679 228.40625 129.2265625 C230.64182252 120.02062383 232.64751169 110.83678494 234.31640625 101.51171875 C235.10712102 97.44970402 236.17964386 93.52157603 237.3203125 89.546875 C238.23119681 86.13367634 238.80818238 82.69493177 239.40234375 79.21484375 C240.30068221 74.38260484 241.402943 69.5980517 242.50366211 64.80834961 C243.42323307 60.76323249 244.24685551 56.71748402 244.97265625 52.6328125 C245.97635785 47.01012512 247.17250756 41.44409985 248.4375 35.875 C248.64181641 34.95074219 248.84613281 34.02648437 249.05664062 33.07421875 C250.04132455 28.72443118 251.11919064 24.49759101 252.58984375 20.28515625 C253.93528806 16.40378467 254.63235489 12.65145439 255.125 8.5625 C255.90987124 2.18025751 255.90987124 2.18025751 257 0 C274.82 0 292.64 0 311 0 C309.68393294 7.89640235 308.26702456 15.38729796 306.1875 23.0625 C305.92469238 24.0512915 305.66188477 25.04008301 305.39111328 26.05883789 C304.85492206 28.07529872 304.31653657 30.09117744 303.77587891 32.10644531 C302.62990769 36.38021839 301.50163232 40.65859554 300.375 44.9375 C300.06792114 46.10067749 300.06792114 46.10067749 299.75463867 47.28735352 C298.29589021 52.82801269 296.895632 58.38155581 295.51904297 63.94311523 C294.22732163 69.14167942 292.8712107 74.32188903 291.5 79.5 C289.47832892 87.14325533 287.52808279 94.80157114 285.62597656 102.47558594 C281.58600976 118.76780777 277.52730079 135.04575374 273.1171875 151.2421875 C269.20749767 165.73103804 265.63768962 180.30928247 262.04296875 194.87890625 C261.25711607 198.02273234 260.43692243 201.15720358 259.61297607 204.29124451 C258.9018222 206.99648763 258.19394729 209.70258565 257.48608398 212.40869141 C257.1202458 213.80333755 256.75273119 215.19754501 256.38354492 216.59130859 C255.84335357 218.63256478 255.30979758 220.67546372 254.77734375 222.71875 C254.46015381 223.92466797 254.14296387 225.13058594 253.81616211 226.37304688 C252.95499503 230.19999816 252.48654456 234.10764348 252 238 C233.85 238 215.7 238 197 238 C196.01 235.03 195.02 232.06 194 229 C193.649375 228.195625 193.29875 227.39125 192.9375 226.5625 C192.1119741 224.30606254 191.6722539 222.367108 191.25390625 220.015625 C189.60952223 211.63401211 187.23648647 203.42587463 185 195.1875 C184.50711198 193.36230257 184.01452231 191.53702455 183.5222168 189.71166992 C182.26198131 185.04198094 180.99802765 180.37330792 179.73284912 175.70495605 C178.59758726 171.51468912 177.46477696 167.3237602 176.33203125 163.1328125 C175.07919063 158.49770552 173.82618751 153.86264377 172.5715332 149.22802734 C169.91983329 139.42908452 167.29570414 129.62310198 164.6875 119.8125 C162.50674379 111.61737377 160.31920626 103.42458953 158.0625 95.25 C157.86293701 94.52272705 157.66337402 93.7954541 157.45776367 93.04614258 C156.45810565 89.4384245 156.45810565 89.4384245 155 86 C152.26405332 96.08225458 149.69322951 106.17361073 147.4375 116.375 C145.90944766 123.2544842 144.20087572 129.97350131 142.03125 136.68359375 C138.86823689 146.85555635 136.37556776 157.24485415 134 167.625 C132.02960275 176.19712098 129.53338416 184.58054031 127 193 C123.33996166 205.17883899 120.12115848 217.33922752 117.56054688 229.80126953 C117.36912109 230.72794434 117.17769531 231.65461914 116.98046875 232.609375 C116.73139771 233.8463916 116.73139771 233.8463916 116.47729492 235.10839844 C116 237 116 237 115 238 C113.31198015 238.09353163 111.62004793 238.11744791 109.92944336 238.11352539 C108.84839828 238.11344986 107.76735321 238.11337433 106.65354919 238.11329651 C104.889515 238.10555458 104.889515 238.10555458 103.08984375 238.09765625 C101.89267227 238.0962413 100.69550079 238.09482635 99.46205139 238.09336853 C95.62050934 238.08774979 91.77902457 238.07519411 87.9375 238.0625 C85.34049563 238.05748741 82.74349035 238.05292409 80.14648438 238.04882812 C73.76430321 238.03777427 67.3821557 238.02101792 61 238 C59.73590322 234.31450636 58.61012161 230.65595314 57.703125 226.8671875 C57.35302368 225.42653931 57.35302368 225.42653931 56.99584961 223.95678711 C56.74971924 222.93979736 56.50358887 221.92280762 56.25 220.875 C54.3583246 213.15236219 52.31418226 205.52454179 49.9375 197.9375 C47.45891932 189.97006243 45.59993197 181.95978717 43.89648438 173.79467773 C41.82853963 163.95790063 39.29160085 154.2633092 36.68457031 144.55761719 C36.05899716 142.22041876 35.44453615 139.8807284 34.8359375 137.5390625 C34.49486345 136.23435623 34.15372327 134.92966725 33.8125 133.625 C33.53019531 132.54476562 33.24789062 131.46453125 32.95703125 130.3515625 C32.22630964 127.7925456 31.42707737 125.31871133 30.5546875 122.80859375 C28.74222193 117.43715613 27.5354186 111.96781441 26.3125 106.4375 C20.35064974 80.0890486 13.58586545 53.93462804 6.30078125 27.921875 C6.0289502 26.94428223 5.75711914 25.96668945 5.47705078 24.95947266 C4.9745448 23.1554855 4.46696252 21.352899 3.95263672 19.55224609 C2.12946519 13.00300164 1.13589112 6.81534669 0 0 Z " fill="#FCFCFB" transform="translate(471,395)"/>
<path d="M0 0 C1.17433594 0.55171875 2.34867188 1.1034375 3.55859375 1.671875 C12.70243637 6.12054962 20.14126447 11.77467483 27.57568359 18.68115234 C28.73436651 19.75403632 29.92010159 20.79764814 31.11328125 21.83203125 C37.00808313 27.18478238 40.9624042 34.21531846 45 41 C45.49757813 41.82371094 45.99515625 42.64742188 46.5078125 43.49609375 C51.18200788 51.97725957 55 63.26592033 55 73 C37.18 73 19.36 73 1 73 C0.01 68.545 0.01 68.545 -1 64 C-7.94276183 50.6190881 -20.42096577 43.99916037 -34 39 C-47.98628583 34.67554419 -70.23223578 36.40639772 -83 43 C-83.97066406 43.49628906 -84.94132812 43.99257813 -85.94140625 44.50390625 C-100.50714815 52.91111472 -109.29293565 65.50939675 -115 81 C-115.28875 81.70125 -115.5775 82.4025 -115.875 83.125 C-116.143125 83.785 -116.41125 84.445 -116.6875 85.125 C-116.91824219 85.68445313 -117.14898437 86.24390625 -117.38671875 86.8203125 C-119.71877635 95.10877201 -119.24279417 103.9629281 -119.25 112.5 C-119.25067474 113.2158728 -119.25134949 113.93174561 -119.25204468 114.66931152 C-119.22258301 134.31446113 -116.48048255 151.1035233 -104 167 C-103.1646875 168.06541016 -103.1646875 168.06541016 -102.3125 169.15234375 C-94.96408114 178.01467298 -86.7932802 183.13769875 -76 187 C-75.36360596 187.26184082 -74.72721191 187.52368164 -74.0715332 187.79345703 C-67.44958116 190.33555126 -61.223453 190.44850386 -54.1875 190.375 C-53.08857422 190.38660156 -51.98964844 190.39820313 -50.85742188 190.41015625 C-38.47889338 190.36639009 -28.49127539 187.50093293 -18 181 C-17.34128906 180.60941406 -16.68257812 180.21882812 -16.00390625 179.81640625 C-5.63355173 173.141501 -1.3920887 161.98022176 3 151 C20.49 151 37.98 151 56 151 C52.92103278 169.47380329 46.59709515 187.73405891 34 202 C33.33484375 202.80695313 32.6696875 203.61390625 31.984375 204.4453125 C26.37494836 211.04345102 20.12527108 216.10844485 13 221 C12.21109375 221.55558594 11.4221875 222.11117187 10.609375 222.68359375 C3.04297584 227.63778368 -5.45462853 230.24554259 -14 233 C-14.64565918 233.20931152 -15.29131836 233.41862305 -15.95654297 233.63427734 C-24.42848791 236.3614708 -31.86436108 238.15703876 -40.75390625 238.23828125 C-41.60943588 238.246353 -42.46496552 238.25442474 -43.34642029 238.26274109 C-45.16281126 238.2765543 -46.97922788 238.28728878 -48.7956543 238.29516602 C-50.61344264 238.30655426 -52.43120119 238.32679019 -54.2487793 238.35668945 C-70.46154247 238.62271609 -85.83955223 237.03545428 -101 231 C-101 230.34 -101 229.68 -101 229 C-101.99 228.8453125 -101.99 228.8453125 -103 228.6875 C-106.83841009 227.80786436 -110.33096691 226.43030104 -114 225 C-114 224.34 -114 223.68 -114 223 C-114.71800781 222.9071875 -115.43601562 222.814375 -116.17578125 222.71875 C-133.32422402 218.35455433 -149.49656747 196.36973553 -158.2109375 181.78442383 C-175.59226043 151.73027223 -180.41973087 112.74025926 -172 79 C-163.1105396 49.13227193 -146.07458711 21.86202352 -118.3125 6.1875 C-116.88085486 5.44690397 -115.44324764 4.71772315 -114 4 C-113.21238281 3.58234375 -112.42476563 3.1646875 -111.61328125 2.734375 C-106.38706717 0.01050832 -101.10946962 -2.17322694 -95.54296875 -4.10546875 C-93.82542441 -4.70964333 -92.12297998 -5.35829477 -90.4375 -6.046875 C-64.36125299 -16.2433562 -24.47533742 -12.25450182 0 0 Z " fill="#FBFBFB" transform="translate(420,398)"/>
<path d="M0 0 C0.66 0 1.32 0 2 0 C2.51046875 1.17755859 2.51046875 1.17755859 3.03125 2.37890625 C8.05320028 13.26425062 13.78827324 18.82155554 25 23 C25 23.66 25 24.32 25 25 C24.21496094 25.3403125 23.42992187 25.680625 22.62109375 26.03125 C11.73574938 31.05320028 6.17844446 36.78827324 2 48 C1.34 48 0.68 48 0 48 C-0.3403125 47.21496094 -0.680625 46.42992187 -1.03125 45.62109375 C-6.05320028 34.73574938 -11.78827324 29.17844446 -23 25 C-23 24.34 -23 23.68 -23 23 C-22.21496094 22.6596875 -21.42992187 22.319375 -20.62109375 21.96875 C-9.73574938 16.94679972 -4.17844446 11.21172676 0 0 Z " fill="#7D7D7D" transform="translate(967,944)"/>
<path d="M0 0 C1 2 1 2 0.44140625 4.1640625 C0.15136719 4.97617187 -0.13867188 5.78828125 -0.4375 6.625 C-0.72496094 7.44226563 -1.01242187 8.25953125 -1.30859375 9.1015625 C-1.53675781 9.72804688 -1.76492188 10.35453125 -2 11 C-4 8 -4 8 -4 5 C-3.34 4.67 -2.68 4.34 -2 4 C-0.86649466 1.98330173 -0.86649466 1.98330173 0 0 Z " fill="#252626" transform="translate(694,546)"/>
<path d="M0 0 C2 3 2 3 2 5 C0.625 6.5 0.625 6.5 -1 8 C-1.66 8.66 -2.32 9.32 -3 10 C-2.69201674 8.51988629 -2.378482 7.04092675 -2.0625 5.5625 C-1.88847656 4.73878906 -1.71445312 3.91507812 -1.53515625 3.06640625 C-1 1 -1 1 0 0 Z " fill="#4D4E50" transform="translate(626,480)"/>
</svg>
